<svg width="50" height="50" viewBox="0 0 50 50" fill="none" xmlns="http://www.w3.org/2000/svg">
<g clip-path="url(#clip0)">
<path d="M31.3263 42.9554C33.3656 40.1047 34.5661 36.6127 34.5661 32.8403C34.5661 23.2269 26.7731 15.4339 17.1597 15.4339C13.3873 15.4339 9.89532 16.6344 7.0446 18.6737C9.65271 11.272 16.7061 5.96657 25 5.96657C35.5118 5.96657 44.0334 14.4882 44.0334 25C44.0334 33.2939 38.728 40.3473 31.3263 42.9554V42.9554Z" fill="#EBE9CE"/>
<path d="M36.9846 39.7858C39.6389 36.5143 41.2296 32.3452 41.2296 27.8042C41.2296 17.292 32.708 8.77037 22.1958 8.77037C17.6548 8.77037 13.4857 10.3611 10.2142 13.0154C13.7035 8.71506 19.0304 5.96657 25 5.96657C35.5118 5.96657 44.0334 14.4882 44.0334 25C44.0334 30.9696 41.2849 36.2965 36.9846 39.7858Z" fill="#D9C830"/>
<path d="M17.0193 27.3453L20.0623 28.4515C20.0623 28.4515 18.5581 28.9986 17.0193 29.5582C15.9225 29.9568 15.0589 30.8208 14.6599 31.9176L13.5536 34.9606C13.5536 34.9606 13.0066 33.4564 12.447 31.9176C12.0483 30.8208 11.1843 29.9568 10.088 29.5582C8.54874 28.9986 7.0446 28.4515 7.0446 28.4515L10.088 27.3453C11.1843 26.9463 12.0483 26.0826 12.447 24.9859C13.0066 23.447 13.5536 21.9429 13.5536 21.9429L14.6599 24.9859C15.0589 26.0826 15.9225 26.9463 17.0193 27.3453V27.3453Z" fill="#D9C830"/>
<path d="M25.9697 38.2244L27.8599 38.9118C27.8599 38.9118 26.9257 39.2517 25.9697 39.5992C25.2884 39.8472 24.7517 40.3835 24.5041 41.0648L23.8167 42.9554C23.8167 42.9554 23.4768 42.0212 23.1293 41.0648C22.8813 40.3835 22.345 39.8468 21.6637 39.5992C20.7077 39.2517 19.7731 38.9118 19.7731 38.9118L21.6637 38.2244C22.345 37.9768 22.8817 37.4401 23.1293 36.7588C23.4768 35.8028 23.8167 34.8686 23.8167 34.8686L24.5041 36.7588C24.7517 37.4401 25.2884 37.9768 25.9697 38.2244Z" fill="#D9C830"/>
<path d="M20.4372 16.4957C20.0367 16.416 19.7765 16.0265 19.8563 15.626C19.9364 15.2251 20.3259 14.9653 20.7264 15.045C29.1741 16.7292 35.3058 24.2132 35.3058 32.8404C35.3058 35.8483 34.5772 38.755 33.1829 41.3654C39.3116 38.2988 43.2938 31.979 43.2938 25.0001C43.2938 14.913 35.0872 6.70654 25 6.70654C18.021 6.70654 11.7012 10.6887 8.63418 16.8173C11.245 15.423 14.1518 14.6944 17.1597 14.6944C17.5682 14.6944 17.8993 15.0256 17.8993 15.4341C17.8993 15.8427 17.5682 16.1738 17.1597 16.1738C13.6608 16.1738 10.3119 17.2464 7.47489 19.2755C7.21244 19.4631 6.85844 19.4593 6.60018 19.2652C6.34231 19.0714 6.23969 18.7326 6.34689 18.4282C9.12895 10.5323 16.6252 5.22722 25 5.22722C35.9028 5.22722 44.7731 14.0974 44.7731 25.0001C44.7731 33.3748 39.468 40.871 31.5724 43.653C31.2676 43.7602 30.9288 43.6576 30.735 43.3994C30.5412 43.1415 30.537 42.7875 30.7247 42.525C32.7538 39.6881 33.8265 36.3392 33.8265 32.84C33.8265 24.9162 28.1956 18.0426 20.4372 16.4957V16.4957Z" fill="#292828" fill-opacity="0.96"/>
<path d="M15.3553 32.1701L14.2487 35.2135C14.1422 35.5057 13.8645 35.7002 13.5536 35.7002C13.2427 35.7002 12.9646 35.5057 12.8586 35.2135L11.7519 32.1701C11.4273 31.2771 10.7285 30.5782 9.83505 30.2532L6.79207 29.147C6.49986 29.0405 6.30531 28.7628 6.30531 28.4515C6.30531 28.1406 6.49986 27.8629 6.79207 27.7565L9.83505 26.6499C10.7285 26.3252 11.4273 25.6264 11.7519 24.733L12.8586 21.69C12.965 21.3978 13.2427 21.2032 13.5536 21.2032C13.8645 21.2032 14.1426 21.3978 14.2487 21.69L15.3553 24.733C15.6799 25.6264 16.3788 26.3252 17.2722 26.6499L20.3152 27.7565C20.6074 27.8629 20.8019 28.1406 20.8019 28.4515C20.8019 28.7628 20.6074 29.0405 20.3152 29.147L17.2722 30.2532C16.3788 30.5782 15.6799 31.2767 15.3553 32.1701ZM16.7664 28.0403C15.461 27.5654 14.4398 26.5442 13.9648 25.2388L13.5536 24.1074L13.142 25.2388C12.6675 26.5442 11.6463 27.5654 10.3405 28.0403L9.20906 28.4515L10.3405 28.8631C11.6463 29.3381 12.6675 30.3593 13.142 31.6647L13.5536 32.7965L13.9648 31.6647C14.4398 30.3593 15.461 29.3381 16.7664 28.8631L17.8982 28.4519L16.7664 28.0403Z" fill="#292828" fill-opacity="0.96"/>
<path d="M28.4911 38.4443L26.5148 39.3784C26.0163 39.6143 25.6267 40.1213 25.4452 40.7693L24.7266 43.338C24.6153 43.7356 24.325 44 24 44C23.675 44 23.3843 43.7356 23.2734 43.338L22.5548 40.7693C22.3733 40.1213 21.9837 39.6143 21.4852 39.3784L19.5089 38.4443C19.2034 38.3002 19 37.9228 19 37.4997C19 37.0772 19.2034 36.6998 19.5089 36.5552L21.4848 35.621C21.9837 35.3852 22.3733 34.8787 22.5548 34.2307L23.2734 31.6615C23.3843 31.2644 23.675 31 24 31C24.325 31 24.6153 31.2644 24.7266 31.6615L25.4452 34.2307C25.6263 34.8787 26.0163 35.3857 26.5148 35.621L28.4911 36.5552C28.7966 36.6998 29 37.0772 29 37.4997C29 37.9228 28.7966 38.3002 28.4911 38.4443ZM24 34.9461C23.661 36.1312 22.9472 37.0596 22.0352 37.5003C22.9472 37.9404 23.661 38.8688 24 40.0539C24.3386 38.8688 25.0528 37.9404 25.9644 37.5003C25.0528 37.0596 24.3386 36.1312 24 34.9461Z" fill="#292828" fill-opacity="0.96"/>
<path d="M42.6777 42.6777C37.9559 47.3995 31.678 50 25 50C19.6587 50 14.563 48.3391 10.2638 45.1973C9.93385 44.9562 9.86214 44.4935 10.1028 44.1635C10.3439 43.8339 10.8067 43.7618 11.1366 44.0029C15.181 46.9585 19.9745 48.5207 25 48.5207C37.9696 48.5207 48.5207 37.9692 48.5207 25C48.5207 12.0308 37.9696 1.47934 25 1.47934C12.0304 1.47934 1.47934 12.0308 1.47934 25C1.47934 31.3812 3.99208 37.3531 8.55484 41.8159C8.84666 42.1017 8.852 42.5697 8.56628 42.8619C8.28094 43.1538 7.8125 43.1591 7.52029 42.8734C5.16548 40.5704 3.31497 37.8746 2.02026 34.8614C0.679779 31.7413 0 28.4237 0 25C0 18.3224 2.60048 12.0441 7.32231 7.32231C12.0441 2.60048 18.322 0 25 0C31.678 0 37.9559 2.60048 42.6777 7.32231C47.3995 12.0441 50 18.3224 50 25C50 31.6776 47.3995 37.9559 42.6777 42.6777V42.6777Z" fill="#292828" fill-opacity="0.96"/>
</g>
<defs>
<clipPath id="clip0">
<rect width="50" height="50" fill="white" transform="matrix(1 0 0 -1 0 50)"/>
</clipPath>
</defs>
</svg>
