<svg height="512pt" viewBox="0 0 512 512" width="512pt" xmlns="http://www.w3.org/2000/svg"><path d="m504.425781 256c0 137.203125-111.222656 248.425781-248.425781 248.425781s-248.425781-111.222656-248.425781-248.425781 111.222656-248.425781 248.425781-248.425781 248.425781 111.222656 248.425781 248.425781zm0 0" fill="#757575"/><path d="m397.847656 52.046875c28.023438 40.21875 44.472656 89.109375 44.472656 141.847656 0 137.199219-111.226562 248.425781-248.425781 248.425781-52.738281 0-101.628906-16.449218-141.847656-44.472656 44.882813 64.414063 119.488281 106.578125 203.953125 106.578125 137.203125 0 248.425781-111.222656 248.425781-248.425781 0-84.464844-42.164062-159.070312-106.578125-203.953125zm0 0" fill="#595959"/><path d="m320.78125 72.136719c20.882812 29.191406 33.175781 64.949219 33.175781 103.578125 0 98.441406-79.800781 178.242187-178.242187 178.242187-38.628906 0-74.386719-12.292969-103.578125-33.175781 26.707031 75.792969 98.933593 130.121094 183.863281 130.121094 107.640625 0 194.902344-87.261719 194.902344-194.902344 0-84.929688-54.328125-157.15625-130.121094-183.863281zm0 0" fill="#fff148"/><path d="m378.722656 104.59375c27.179688 33.5 43.46875 76.191406 43.46875 122.691406 0 107.644532-87.261718 194.90625-194.90625 194.90625-46.5 0-89.191406-16.289062-122.691406-43.46875 35.730469 44.035156 90.277344 72.179688 151.40625 72.179688 107.640625 0 194.902344-87.261719 194.902344-194.902344 0-61.128906-28.144532-115.675781-72.179688-151.40625zm0 0" fill="#ffe600"/><path d="m174.277344 231.984375 31.160156-11.328125s-15.402344-5.601562-31.160156-11.332031c-11.230469-4.082031-20.074219-12.929688-24.160156-24.160157l-11.328126-31.160156s-5.601562 15.402344-11.332031 31.160156c-4.082031 11.230469-12.929687 20.078126-24.15625 24.160157-15.761719 5.730469-31.164062 11.332031-31.164062 11.332031l31.164062 11.328125c11.226563 4.085937 20.074219 12.929687 24.15625 24.160156 5.730469 15.757813 11.332031 31.160157 11.332031 31.160157l11.328126-31.160157c4.085937-11.230469 12.929687-20.074219 24.160156-24.160156zm0 0" fill="#fff148"/><path d="m265.929688 120.582031 19.355468-7.039062s-9.566406-3.480469-19.355468-7.039063c-6.976563-2.539062-12.472657-8.03125-15.007813-15.007812l-7.039063-19.359375s-3.480468 9.566406-7.039062 19.359375c-2.539062 6.976562-8.03125 12.472656-15.007812 15.007812-9.789063 3.558594-19.359376 7.039063-19.359376 7.039063l19.359376 7.039062c6.976562 2.535157 12.472656 8.03125 15.007812 15.007813 3.558594 9.789062 7.039062 19.355468 7.039062 19.355468l7.039063-19.355468c2.535156-6.976563 8.03125-12.472656 15.007813-15.007813zm0 0" fill="#fff148"/><path d="m209.277344 343.085938c-4.101563.816406-6.765625 4.804687-5.949219 8.90625.820313 4.105468 4.808594 6.765624 8.910156 5.949218 86.503907-17.246094 149.292969-93.882812 149.292969-182.226562 0-30.800782-7.460938-60.566406-21.738281-87.296875 62.757812 31.402343 103.535156 96.117187 103.535156 167.582031 0 103.292969-84.035156 187.328125-187.328125 187.328125-71.464844 0-136.179688-40.777344-167.585938-103.535156 26.734376 14.277343 56.5 21.738281 87.300782 21.738281 4.183594 0 7.574218-3.390625 7.574218-7.574219 0-4.183593-3.390624-7.574219-7.574218-7.574219-35.828125 0-70.121094-10.984374-99.171875-31.761718-2.6875-1.921875-6.3125-1.882813-8.957031.105468-2.640626 1.984376-3.691407 5.453126-2.59375 8.570313 28.488281 80.855469 105.25 135.179687 191.007812 135.179687 111.644531 0 202.476562-90.832031 202.476562-202.476562 0-85.757812-54.324218-162.519531-135.175781-191.007812-3.121093-1.097657-6.589843-.046876-8.574219 2.597656-1.984374 2.640625-2.027343 6.265625-.105468 8.953125 20.777344 29.050781 31.761718 63.34375 31.761718 99.175781 0 81.140625-57.660156 151.527344-137.105468 167.367188zm0 0"/><path d="m157.238281 182.578125-11.332031-31.164063c-1.089844-2.992187-3.933594-4.984374-7.117188-4.984374-3.183593 0-6.03125 1.992187-7.117187 4.984374l-11.332031 31.164063c-3.324219 9.144531-10.480469 16.300781-19.628906 19.628906l-31.160157 11.328125c-2.992187 1.089844-4.984375 3.933594-4.984375 7.121094 0 3.183594 1.992188 6.027344 4.984375 7.117188l31.160157 11.332031c9.148437 3.324219 16.304687 10.480469 19.628906 19.628906l11.332031 31.160156c1.089844 2.992188 3.933594 4.984375 7.117187 4.984375 3.183594 0 6.03125-1.992187 7.117188-4.984375l11.332031-31.160156c3.324219-9.148437 10.480469-16.304687 19.628907-19.628906l31.160156-11.332031c2.992187-1.089844 4.984375-3.933594 4.984375-7.117188 0-3.1875-1.992188-6.03125-4.984375-7.121094l-31.160156-11.328125c-9.148438-3.328125-16.304688-10.480469-19.628907-19.628906zm14.449219 42.289063c-13.367188 4.863281-23.824219 15.320312-28.6875 28.6875l-4.210938 11.585937-4.214843-11.585937c-4.859375-13.367188-15.316407-23.824219-28.6875-28.6875l-11.585938-4.210938 11.585938-4.214844c13.371093-4.863281 23.828125-15.320312 28.6875-28.6875l4.214843-11.589844 4.210938 11.589844c4.863281 13.367188 15.320312 23.824219 28.6875 28.6875l11.589844 4.210938zm0 0"/><path d="m287.875 106.425781-19.359375-7.039062c-4.882813-1.777344-8.699219-5.597657-10.476563-10.480469l-7.039062-19.355469c-1.089844-2.996093-3.933594-4.988281-7.117188-4.988281-3.183593 0-6.03125 1.992188-7.117187 4.988281l-7.039063 19.355469c-1.777343 4.882812-5.59375 8.703125-10.476562 10.480469l-19.359375 7.039062c-2.992187 1.085938-4.984375 3.929688-4.984375 7.117188 0 3.183593 1.992188 6.027343 4.984375 7.117187l19.355469 7.039063c4.886718 1.777343 8.703125 5.59375 10.480468 10.476562l7.039063 19.359375c1.085937 2.992188 3.933594 4.984375 7.117187 4.984375 3.183594 0 6.027344-1.992187 7.117188-4.984375l7.039062-19.359375c1.773438-4.882812 5.59375-8.703125 10.476563-10.476562l19.359375-7.039063c2.992188-1.089844 4.984375-3.933594 4.984375-7.117187 0-3.1875-1.992187-6.03125-4.984375-7.117188zm-43.992188 26.359375c-3.320312-8.929687-10.3125-15.925781-19.246093-19.246094 8.933593-3.316406 15.925781-10.3125 19.246093-19.242187 3.316407 8.929687 10.3125 15.925781 19.242188 19.242187-8.929688 3.320313-15.925781 10.316407-19.242188 19.246094zm0 0"/><path d="m437.019531 74.980469c-48.351562-48.351563-112.636719-74.980469-181.019531-74.980469-54.695312 0-106.875 17.007812-150.898438 49.179688-3.378906 2.46875-4.113281 7.207031-1.648437 10.585937 2.46875 3.375 7.207031 4.113281 10.585937 1.644531 41.414063-30.265625 90.5-46.261718 141.960938-46.261718 132.808594 0 240.851562 108.046874 240.851562 240.851562s-108.042968 240.851562-240.851562 240.851562-240.851562-108.046874-240.851562-240.851562c0-65.34375 25.730468-126.496094 72.453124-172.195312 2.988282-2.925782 3.042969-7.71875.117188-10.710938-2.921875-2.988281-7.71875-3.042969-10.710938-.117188-24.113281 23.582032-43.0625 51.1875-56.320312 82.042969-13.726562 31.949219-20.6875 65.921875-20.6875 100.980469 0 68.378906 26.628906 132.667969 74.980469 181.019531 48.351562 48.351563 112.636719 74.980469 181.019531 74.980469s132.667969-26.628906 181.019531-74.980469c48.351563-48.351562 74.980469-112.640625 74.980469-181.019531s-26.628906-132.667969-74.980469-181.019531zm0 0"/></svg>